<?xml version="1.0" encoding="UTF-8" standalone="no"?><svg xmlns="http://www.w3.org/2000/svg" xmlns:xlink="http://www.w3.org/1999/xlink" contentStyleType="text/css" height="2212px" preserveAspectRatio="none" style="width:1550px;height:2212px;background:#FFFFFF;" version="1.1" viewBox="0 0 1550 2212" width="1550px" zoomAndPan="magnify"><defs/><g><line style="stroke:#181818;stroke-width:0.5;stroke-dasharray:5.0,5.0;" x1="24" x2="24" y1="81.2969" y2="2132.0625"/><line style="stroke:#181818;stroke-width:0.5;stroke-dasharray:5.0,5.0;" x1="263" x2="263" y1="81.2969" y2="2132.0625"/><line style="stroke:#181818;stroke-width:0.5;stroke-dasharray:5.0,5.0;" x1="505.5" x2="505.5" y1="81.2969" y2="2132.0625"/><line style="stroke:#181818;stroke-width:0.5;stroke-dasharray:5.0,5.0;" x1="748.5" x2="748.5" y1="81.2969" y2="2132.0625"/><line style="stroke:#181818;stroke-width:0.5;stroke-dasharray:5.0,5.0;" x1="1006" x2="1006" y1="81.2969" y2="2132.0625"/><line style="stroke:#181818;stroke-width:0.5;stroke-dasharray:5.0,5.0;" x1="1148" x2="1148" y1="81.2969" y2="2132.0625"/><line style="stroke:#181818;stroke-width:0.5;stroke-dasharray:5.0,5.0;" x1="1337" x2="1337" y1="81.2969" y2="2132.0625"/><line style="stroke:#181818;stroke-width:0.5;stroke-dasharray:5.0,5.0;" x1="1492" x2="1492" y1="81.2969" y2="2132.0625"/><text fill="#000000" font-family="sans-serif" font-size="14" lengthAdjust="spacing" textLength="32" x="5" y="77.9951">User</text><ellipse cx="24" cy="13.5" fill="#E2E2F0" rx="8" ry="8" style="stroke:#181818;stroke-width:0.5;"/><path d="M24,21.5 L24,48.5 M11,29.5 L37,29.5 M24,48.5 L11,63.5 M24,48.5 L37,63.5 " fill="none" style="stroke:#181818;stroke-width:0.5;"/><text fill="#000000" font-family="sans-serif" font-size="14" lengthAdjust="spacing" textLength="32" x="5" y="2144.0576">User</text><ellipse cx="24" cy="2155.8594" fill="#E2E2F0" rx="8" ry="8" style="stroke:#181818;stroke-width:0.5;"/><path d="M24,2163.8594 L24,2190.8594 M11,2171.8594 L37,2171.8594 M24,2190.8594 L11,2205.8594 M24,2190.8594 L37,2205.8594 " fill="none" style="stroke:#181818;stroke-width:0.5;"/><rect fill="#E2E2F0" height="30.2969" rx="2.5" ry="2.5" style="stroke:#181818;stroke-width:0.5;" width="78" x="224" y="50"/><text fill="#000000" font-family="sans-serif" font-size="14" lengthAdjust="spacing" textLength="64" x="231" y="69.9951">MainView</text><rect fill="#E2E2F0" height="30.2969" rx="2.5" ry="2.5" style="stroke:#181818;stroke-width:0.5;" width="78" x="224" y="2131.0625"/><text fill="#000000" font-family="sans-serif" font-size="14" lengthAdjust="spacing" textLength="64" x="231" y="2151.0576">MainView</text><rect fill="#E2E2F0" height="30.2969" rx="2.5" ry="2.5" style="stroke:#181818;stroke-width:0.5;" width="113" x="449.5" y="50"/><text fill="#000000" font-family="sans-serif" font-size="14" lengthAdjust="spacing" textLength="99" x="456.5" y="69.9951">MainController</text><rect fill="#E2E2F0" height="30.2969" rx="2.5" ry="2.5" style="stroke:#181818;stroke-width:0.5;" width="113" x="449.5" y="2131.0625"/><text fill="#000000" font-family="sans-serif" font-size="14" lengthAdjust="spacing" textLength="99" x="456.5" y="2151.0576">MainController</text><rect fill="#E2E2F0" height="30.2969" rx="2.5" ry="2.5" style="stroke:#181818;stroke-width:0.5;" width="95" x="701.5" y="50"/><text fill="#000000" font-family="sans-serif" font-size="14" lengthAdjust="spacing" textLength="81" x="708.5" y="69.9951">ClientModel</text><rect fill="#E2E2F0" height="30.2969" rx="2.5" ry="2.5" style="stroke:#181818;stroke-width:0.5;" width="95" x="701.5" y="2131.0625"/><text fill="#000000" font-family="sans-serif" font-size="14" lengthAdjust="spacing" textLength="81" x="708.5" y="2151.0576">ClientModel</text><rect fill="#E2E2F0" height="30.2969" rx="2.5" ry="2.5" style="stroke:#181818;stroke-width:0.5;" width="102" x="955" y="50"/><text fill="#000000" font-family="sans-serif" font-size="14" lengthAdjust="spacing" textLength="88" x="962" y="69.9951">ClientRepDB</text><rect fill="#E2E2F0" height="30.2969" rx="2.5" ry="2.5" style="stroke:#181818;stroke-width:0.5;" width="102" x="955" y="2131.0625"/><text fill="#000000" font-family="sans-serif" font-size="14" lengthAdjust="spacing" textLength="88" x="962" y="2151.0576">ClientRepDB</text><rect fill="#E2E2F0" height="30.2969" rx="2.5" ry="2.5" style="stroke:#181818;stroke-width:0.5;" width="162" x="1067" y="50"/><text fill="#000000" font-family="sans-serif" font-size="14" lengthAdjust="spacing" textLength="148" x="1074" y="69.9951">AddUpdateClientView</text><rect fill="#E2E2F0" height="30.2969" rx="2.5" ry="2.5" style="stroke:#181818;stroke-width:0.5;" width="162" x="1067" y="2131.0625"/><text fill="#000000" font-family="sans-serif" font-size="14" lengthAdjust="spacing" textLength="148" x="1074" y="2151.0576">AddUpdateClientView</text><rect fill="#E2E2F0" height="30.2969" rx="2.5" ry="2.5" style="stroke:#181818;stroke-width:0.5;" width="197" x="1239" y="50"/><text fill="#000000" font-family="sans-serif" font-size="14" lengthAdjust="spacing" textLength="183" x="1246" y="69.9951">AddUpdateClientController</text><rect fill="#E2E2F0" height="30.2969" rx="2.5" ry="2.5" style="stroke:#181818;stroke-width:0.5;" width="197" x="1239" y="2131.0625"/><text fill="#000000" font-family="sans-serif" font-size="14" lengthAdjust="spacing" textLength="183" x="1246" y="2151.0576">AddUpdateClientController</text><rect fill="#E2E2F0" height="30.2969" rx="2.5" ry="2.5" style="stroke:#181818;stroke-width:0.5;" width="92" x="1446" y="50"/><text fill="#000000" font-family="sans-serif" font-size="14" lengthAdjust="spacing" textLength="78" x="1453" y="69.9951">Observable</text><rect fill="#E2E2F0" height="30.2969" rx="2.5" ry="2.5" style="stroke:#181818;stroke-width:0.5;" width="92" x="1446" y="2131.0625"/><text fill="#000000" font-family="sans-serif" font-size="14" lengthAdjust="spacing" textLength="78" x="1453" y="2151.0576">Observable</text><rect fill="#EEEEEE" height="3" style="stroke:#EEEEEE;stroke-width:1.0;" width="1543" x="0" y="111.8633"/><line style="stroke:#000000;stroke-width:1.0;" x1="0" x2="1543" y1="111.8633" y2="111.8633"/><line style="stroke:#000000;stroke-width:1.0;" x1="0" x2="1543" y1="114.8633" y2="114.8633"/><rect fill="#EEEEEE" height="23.1328" style="stroke:#000000;stroke-width:2.0;" width="253" x="645" y="101.2969"/><text fill="#000000" font-family="sans-serif" font-size="13" font-weight="bold" lengthAdjust="spacing" textLength="234" x="651" y="117.3638">Инициализация главного окна</text><polygon fill="#181818" points="251,151.5625,261,155.5625,251,159.5625,255,155.5625" style="stroke:#181818;stroke-width:1.0;"/><line style="stroke:#181818;stroke-width:1.0;" x1="24" x2="257" y1="155.5625" y2="155.5625"/><text fill="#000000" font-family="sans-serif" font-size="13" lengthAdjust="spacing" textLength="135" x="31" y="150.4966">Запуск приложения</text><line style="stroke:#181818;stroke-width:1.0;" x1="263" x2="305" y1="184.6953" y2="184.6953"/><line style="stroke:#181818;stroke-width:1.0;" x1="305" x2="305" y1="184.6953" y2="197.6953"/><line style="stroke:#181818;stroke-width:1.0;" x1="264" x2="305" y1="197.6953" y2="197.6953"/><polygon fill="#181818" points="274,193.6953,264,197.6953,274,201.6953,270,197.6953" style="stroke:#181818;stroke-width:1.0;"/><text fill="#000000" font-family="sans-serif" font-size="13" lengthAdjust="spacing" textLength="94" x="270" y="179.6294">refresh_table()</text><polygon fill="#181818" points="494,222.8281,504,226.8281,494,230.8281,498,226.8281" style="stroke:#181818;stroke-width:1.0;"/><line style="stroke:#181818;stroke-width:1.0;" x1="263" x2="500" y1="226.8281" y2="226.8281"/><text fill="#000000" font-family="sans-serif" font-size="13" lengthAdjust="spacing" textLength="219" x="270" y="221.7622">get_clients(page_size, page_num)</text><polygon fill="#181818" points="737,251.9609,747,255.9609,737,259.9609,741,255.9609" style="stroke:#181818;stroke-width:1.0;"/><line style="stroke:#181818;stroke-width:1.0;" x1="506" x2="743" y1="255.9609" y2="255.9609"/><text fill="#000000" font-family="sans-serif" font-size="13" lengthAdjust="spacing" textLength="219" x="513" y="250.895">get_clients(page_size, page_num)</text><polygon fill="#181818" points="994,281.0938,1004,285.0938,994,289.0938,998,285.0938" style="stroke:#181818;stroke-width:1.0;"/><line style="stroke:#181818;stroke-width:1.0;" x1="749" x2="1000" y1="285.0938" y2="285.0938"/><text fill="#000000" font-family="sans-serif" font-size="13" lengthAdjust="spacing" textLength="233" x="756" y="280.0278">get_k_n_short_list(page_size, offset)</text><polygon fill="#181818" points="760,310.2266,750,314.2266,760,318.2266,756,314.2266" style="stroke:#181818;stroke-width:1.0;"/><line style="stroke:#181818;stroke-width:1.0;stroke-dasharray:2.0,2.0;" x1="754" x2="1005" y1="314.2266" y2="314.2266"/><text fill="#000000" font-family="sans-serif" font-size="13" lengthAdjust="spacing" textLength="176" x="766" y="309.1606">Возврат списка клиентов</text><polygon fill="#181818" points="517,339.3594,507,343.3594,517,347.3594,513,343.3594" style="stroke:#181818;stroke-width:1.0;"/><line style="stroke:#181818;stroke-width:1.0;stroke-dasharray:2.0,2.0;" x1="511" x2="748" y1="343.3594" y2="343.3594"/><text fill="#000000" font-family="sans-serif" font-size="13" lengthAdjust="spacing" textLength="176" x="523" y="338.2935">Возврат списка клиентов</text><polygon fill="#181818" points="274,368.4922,264,372.4922,274,376.4922,270,372.4922" style="stroke:#181818;stroke-width:1.0;"/><line style="stroke:#181818;stroke-width:1.0;stroke-dasharray:2.0,2.0;" x1="268" x2="505" y1="372.4922" y2="372.4922"/><text fill="#000000" font-family="sans-serif" font-size="13" lengthAdjust="spacing" textLength="146" x="280" y="367.4263">Обновление таблицы</text><rect fill="#EEEEEE" height="3" style="stroke:#EEEEEE;stroke-width:1.0;" width="1543" x="0" y="401.0586"/><line style="stroke:#000000;stroke-width:1.0;" x1="0" x2="1543" y1="401.0586" y2="401.0586"/><line style="stroke:#000000;stroke-width:1.0;" x1="0" x2="1543" y1="404.0586" y2="404.0586"/><rect fill="#EEEEEE" height="23.1328" style="stroke:#000000;stroke-width:2.0;" width="236" x="653.5" y="390.4922"/><text fill="#000000" font-family="sans-serif" font-size="13" font-weight="bold" lengthAdjust="spacing" textLength="217" x="659.5" y="406.5591">Добавление нового клиента</text><polygon fill="#181818" points="251,440.7578,261,444.7578,251,448.7578,255,444.7578" style="stroke:#181818;stroke-width:1.0;"/><line style="stroke:#181818;stroke-width:1.0;" x1="24" x2="257" y1="444.7578" y2="444.7578"/><text fill="#000000" font-family="sans-serif" font-size="13" lengthAdjust="spacing" textLength="215" x="31" y="439.6919">Нажимает "Добавить клиента"</text><polygon fill="#181818" points="1136,469.8906,1146,473.8906,1136,477.8906,1140,473.8906" style="stroke:#181818;stroke-width:1.0;"/><line style="stroke:#181818;stroke-width:1.0;" x1="263" x2="1142" y1="473.8906" y2="473.8906"/><text fill="#000000" font-family="sans-serif" font-size="13" lengthAdjust="spacing" textLength="211" x="270" y="468.8247">Открытие AddUpdateClientView</text><polygon fill="#181818" points="1136,499.0234,1146,503.0234,1136,507.0234,1140,503.0234" style="stroke:#181818;stroke-width:1.0;"/><line style="stroke:#181818;stroke-width:1.0;" x1="24" x2="1142" y1="503.0234" y2="503.0234"/><text fill="#000000" font-family="sans-serif" font-size="13" lengthAdjust="spacing" textLength="151" x="31" y="497.9575">Ввод данных клиента</text><polygon fill="#181818" points="1325.5,528.1563,1335.5,532.1563,1325.5,536.1563,1329.5,532.1563" style="stroke:#181818;stroke-width:1.0;"/><line style="stroke:#181818;stroke-width:1.0;" x1="1148" x2="1331.5" y1="532.1563" y2="532.1563"/><text fill="#000000" font-family="sans-serif" font-size="13" lengthAdjust="spacing" textLength="87" x="1155" y="527.0903">add_client(...)</text><polygon fill="#181818" points="760,557.2891,750,561.2891,760,565.2891,756,561.2891" style="stroke:#181818;stroke-width:1.0;"/><line style="stroke:#181818;stroke-width:1.0;" x1="754" x2="1336.5" y1="561.2891" y2="561.2891"/><text fill="#000000" font-family="sans-serif" font-size="13" lengthAdjust="spacing" textLength="87" x="766" y="556.2231">add_client(...)</text><polygon fill="#181818" points="994,586.4219,1004,590.4219,994,594.4219,998,590.4219" style="stroke:#181818;stroke-width:1.0;"/><line style="stroke:#181818;stroke-width:1.0;" x1="749" x2="1000" y1="590.4219" y2="590.4219"/><text fill="#000000" font-family="sans-serif" font-size="13" lengthAdjust="spacing" textLength="46" x="756" y="585.356">add(...)</text><polygon fill="#181818" points="760,615.5547,750,619.5547,760,623.5547,756,619.5547" style="stroke:#181818;stroke-width:1.0;"/><line style="stroke:#181818;stroke-width:1.0;stroke-dasharray:2.0,2.0;" x1="754" x2="1005" y1="619.5547" y2="619.5547"/><text fill="#000000" font-family="sans-serif" font-size="13" lengthAdjust="spacing" textLength="120" x="766" y="614.4888">Клиент добавлен</text><polygon fill="#181818" points="1480,644.6875,1490,648.6875,1480,652.6875,1484,648.6875" style="stroke:#181818;stroke-width:1.0;"/><line style="stroke:#181818;stroke-width:1.0;" x1="749" x2="1486" y1="648.6875" y2="648.6875"/><text fill="#000000" font-family="sans-serif" font-size="13" lengthAdjust="spacing" textLength="127" x="756" y="643.6216">notify_observers(...)</text><polygon fill="#181818" points="274,673.8203,264,677.8203,274,681.8203,270,677.8203" style="stroke:#181818;stroke-width:1.0;"/><line style="stroke:#181818;stroke-width:1.0;" x1="268" x2="1491" y1="677.8203" y2="677.8203"/><text fill="#000000" font-family="sans-serif" font-size="13" lengthAdjust="spacing" textLength="67" x="280" y="672.7544">update(...)</text><line style="stroke:#181818;stroke-width:1.0;" x1="263" x2="305" y1="706.9531" y2="706.9531"/><line style="stroke:#181818;stroke-width:1.0;" x1="305" x2="305" y1="706.9531" y2="719.9531"/><line style="stroke:#181818;stroke-width:1.0;" x1="264" x2="305" y1="719.9531" y2="719.9531"/><polygon fill="#181818" points="274,715.9531,264,719.9531,274,723.9531,270,719.9531" style="stroke:#181818;stroke-width:1.0;"/><text fill="#000000" font-family="sans-serif" font-size="13" lengthAdjust="spacing" textLength="94" x="270" y="701.8872">refresh_table()</text><polygon fill="#181818" points="494,745.0859,504,749.0859,494,753.0859,498,749.0859" style="stroke:#181818;stroke-width:1.0;"/><line style="stroke:#181818;stroke-width:1.0;" x1="263" x2="500" y1="749.0859" y2="749.0859"/><text fill="#000000" font-family="sans-serif" font-size="13" lengthAdjust="spacing" textLength="219" x="270" y="744.02">get_clients(page_size, page_num)</text><polygon fill="#181818" points="737,774.2188,747,778.2188,737,782.2188,741,778.2188" style="stroke:#181818;stroke-width:1.0;"/><line style="stroke:#181818;stroke-width:1.0;" x1="506" x2="743" y1="778.2188" y2="778.2188"/><text fill="#000000" font-family="sans-serif" font-size="13" lengthAdjust="spacing" textLength="219" x="513" y="773.1528">get_clients(page_size, page_num)</text><polygon fill="#181818" points="994,803.3516,1004,807.3516,994,811.3516,998,807.3516" style="stroke:#181818;stroke-width:1.0;"/><line style="stroke:#181818;stroke-width:1.0;" x1="749" x2="1000" y1="807.3516" y2="807.3516"/><text fill="#000000" font-family="sans-serif" font-size="13" lengthAdjust="spacing" textLength="233" x="756" y="802.2856">get_k_n_short_list(page_size, offset)</text><polygon fill="#181818" points="760,832.4844,750,836.4844,760,840.4844,756,836.4844" style="stroke:#181818;stroke-width:1.0;"/><line style="stroke:#181818;stroke-width:1.0;stroke-dasharray:2.0,2.0;" x1="754" x2="1005" y1="836.4844" y2="836.4844"/><text fill="#000000" font-family="sans-serif" font-size="13" lengthAdjust="spacing" textLength="176" x="766" y="831.4185">Возврат списка клиентов</text><polygon fill="#181818" points="517,861.6172,507,865.6172,517,869.6172,513,865.6172" style="stroke:#181818;stroke-width:1.0;"/><line style="stroke:#181818;stroke-width:1.0;stroke-dasharray:2.0,2.0;" x1="511" x2="748" y1="865.6172" y2="865.6172"/><text fill="#000000" font-family="sans-serif" font-size="13" lengthAdjust="spacing" textLength="176" x="523" y="860.5513">Возврат списка клиентов</text><polygon fill="#181818" points="274,890.75,264,894.75,274,898.75,270,894.75" style="stroke:#181818;stroke-width:1.0;"/><line style="stroke:#181818;stroke-width:1.0;stroke-dasharray:2.0,2.0;" x1="268" x2="505" y1="894.75" y2="894.75"/><text fill="#000000" font-family="sans-serif" font-size="13" lengthAdjust="spacing" textLength="146" x="280" y="889.6841">Обновление таблицы</text><polygon fill="#181818" points="737,919.8828,747,923.8828,737,927.8828,741,923.8828" style="stroke:#181818;stroke-width:1.0;"/><line style="stroke:#181818;stroke-width:1.0;stroke-dasharray:2.0,2.0;" x1="263" x2="743" y1="923.8828" y2="923.8828"/><text fill="#000000" font-family="sans-serif" font-size="13" lengthAdjust="spacing" textLength="132" x="270" y="918.8169">Таблица обновлена</text><polygon fill="#181818" points="1325.5,949.0156,1335.5,953.0156,1325.5,957.0156,1329.5,953.0156" style="stroke:#181818;stroke-width:1.0;"/><line style="stroke:#181818;stroke-width:1.0;stroke-dasharray:2.0,2.0;" x1="749" x2="1331.5" y1="953.0156" y2="953.0156"/><text fill="#000000" font-family="sans-serif" font-size="13" lengthAdjust="spacing" textLength="120" x="756" y="947.9497">Клиент добавлен</text><polygon fill="#181818" points="1159,978.1484,1149,982.1484,1159,986.1484,1155,982.1484" style="stroke:#181818;stroke-width:1.0;"/><line style="stroke:#181818;stroke-width:1.0;stroke-dasharray:2.0,2.0;" x1="1153" x2="1336.5" y1="982.1484" y2="982.1484"/><text fill="#000000" font-family="sans-serif" font-size="13" lengthAdjust="spacing" textLength="37" x="1165" y="977.0825">Успех</text><polygon fill="#181818" points="274,1007.2813,264,1011.2813,274,1015.2813,270,1011.2813" style="stroke:#181818;stroke-width:1.0;"/><line style="stroke:#181818;stroke-width:1.0;stroke-dasharray:2.0,2.0;" x1="268" x2="1147" y1="1011.2813" y2="1011.2813"/><text fill="#000000" font-family="sans-serif" font-size="13" lengthAdjust="spacing" textLength="104" x="280" y="1006.2153">Закрытие окна</text><rect fill="#EEEEEE" height="3" style="stroke:#EEEEEE;stroke-width:1.0;" width="1543" x="0" y="1039.8477"/><line style="stroke:#000000;stroke-width:1.0;" x1="0" x2="1543" y1="1039.8477" y2="1039.8477"/><line style="stroke:#000000;stroke-width:1.0;" x1="0" x2="1543" y1="1042.8477" y2="1042.8477"/><rect fill="#EEEEEE" height="23.1328" style="stroke:#000000;stroke-width:2.0;" width="242" x="650.5" y="1029.2813"/><text fill="#000000" font-family="sans-serif" font-size="13" font-weight="bold" lengthAdjust="spacing" textLength="223" x="656.5" y="1045.3481">Обновление данных клиента</text><polygon fill="#181818" points="251,1079.5469,261,1083.5469,251,1087.5469,255,1083.5469" style="stroke:#181818;stroke-width:1.0;"/><line style="stroke:#181818;stroke-width:1.0;" x1="24" x2="257" y1="1083.5469" y2="1083.5469"/><text fill="#000000" font-family="sans-serif" font-size="13" lengthAdjust="spacing" textLength="209" x="31" y="1078.481">Нажимает "Скорректировать"</text><polygon fill="#181818" points="1136,1108.6797,1146,1112.6797,1136,1116.6797,1140,1112.6797" style="stroke:#181818;stroke-width:1.0;"/><line style="stroke:#181818;stroke-width:1.0;" x1="263" x2="1142" y1="1112.6797" y2="1112.6797"/><text fill="#000000" font-family="sans-serif" font-size="13" lengthAdjust="spacing" textLength="211" x="270" y="1107.6138">Открытие AddUpdateClientView</text><polygon fill="#181818" points="1136,1137.8125,1146,1141.8125,1136,1145.8125,1140,1141.8125" style="stroke:#181818;stroke-width:1.0;"/><line style="stroke:#181818;stroke-width:1.0;" x1="24" x2="1142" y1="1141.8125" y2="1141.8125"/><text fill="#000000" font-family="sans-serif" font-size="13" lengthAdjust="spacing" textLength="190" x="31" y="1136.7466">Изменение данных клиента</text><polygon fill="#181818" points="1325.5,1166.9453,1335.5,1170.9453,1325.5,1174.9453,1329.5,1170.9453" style="stroke:#181818;stroke-width:1.0;"/><line style="stroke:#181818;stroke-width:1.0;" x1="1148" x2="1331.5" y1="1170.9453" y2="1170.9453"/><text fill="#000000" font-family="sans-serif" font-size="13" lengthAdjust="spacing" textLength="108" x="1155" y="1165.8794">update_client(...)</text><polygon fill="#181818" points="760,1196.0781,750,1200.0781,760,1204.0781,756,1200.0781" style="stroke:#181818;stroke-width:1.0;"/><line style="stroke:#181818;stroke-width:1.0;" x1="754" x2="1336.5" y1="1200.0781" y2="1200.0781"/><text fill="#000000" font-family="sans-serif" font-size="13" lengthAdjust="spacing" textLength="108" x="766" y="1195.0122">update_client(...)</text><polygon fill="#181818" points="994,1225.2109,1004,1229.2109,994,1233.2109,998,1229.2109" style="stroke:#181818;stroke-width:1.0;"/><line style="stroke:#181818;stroke-width:1.0;" x1="749" x2="1000" y1="1229.2109" y2="1229.2109"/><text fill="#000000" font-family="sans-serif" font-size="13" lengthAdjust="spacing" textLength="67" x="756" y="1224.145">update(...)</text><polygon fill="#181818" points="760,1254.3438,750,1258.3438,760,1262.3438,756,1258.3438" style="stroke:#181818;stroke-width:1.0;"/><line style="stroke:#181818;stroke-width:1.0;stroke-dasharray:2.0,2.0;" x1="754" x2="1005" y1="1258.3438" y2="1258.3438"/><text fill="#000000" font-family="sans-serif" font-size="13" lengthAdjust="spacing" textLength="118" x="766" y="1253.2778">Клиент обновлен</text><polygon fill="#181818" points="1480,1283.4766,1490,1287.4766,1480,1291.4766,1484,1287.4766" style="stroke:#181818;stroke-width:1.0;"/><line style="stroke:#181818;stroke-width:1.0;" x1="749" x2="1486" y1="1287.4766" y2="1287.4766"/><text fill="#000000" font-family="sans-serif" font-size="13" lengthAdjust="spacing" textLength="127" x="756" y="1282.4106">notify_observers(...)</text><polygon fill="#181818" points="274,1312.6094,264,1316.6094,274,1320.6094,270,1316.6094" style="stroke:#181818;stroke-width:1.0;"/><line style="stroke:#181818;stroke-width:1.0;" x1="268" x2="1491" y1="1316.6094" y2="1316.6094"/><text fill="#000000" font-family="sans-serif" font-size="13" lengthAdjust="spacing" textLength="67" x="280" y="1311.5435">update(...)</text><line style="stroke:#181818;stroke-width:1.0;" x1="263" x2="305" y1="1345.7422" y2="1345.7422"/><line style="stroke:#181818;stroke-width:1.0;" x1="305" x2="305" y1="1345.7422" y2="1358.7422"/><line style="stroke:#181818;stroke-width:1.0;" x1="264" x2="305" y1="1358.7422" y2="1358.7422"/><polygon fill="#181818" points="274,1354.7422,264,1358.7422,274,1362.7422,270,1358.7422" style="stroke:#181818;stroke-width:1.0;"/><text fill="#000000" font-family="sans-serif" font-size="13" lengthAdjust="spacing" textLength="94" x="270" y="1340.6763">refresh_table()</text><polygon fill="#181818" points="494,1383.875,504,1387.875,494,1391.875,498,1387.875" style="stroke:#181818;stroke-width:1.0;"/><line style="stroke:#181818;stroke-width:1.0;" x1="263" x2="500" y1="1387.875" y2="1387.875"/><text fill="#000000" font-family="sans-serif" font-size="13" lengthAdjust="spacing" textLength="219" x="270" y="1382.8091">get_clients(page_size, page_num)</text><polygon fill="#181818" points="737,1413.0078,747,1417.0078,737,1421.0078,741,1417.0078" style="stroke:#181818;stroke-width:1.0;"/><line style="stroke:#181818;stroke-width:1.0;" x1="506" x2="743" y1="1417.0078" y2="1417.0078"/><text fill="#000000" font-family="sans-serif" font-size="13" lengthAdjust="spacing" textLength="219" x="513" y="1411.9419">get_clients(page_size, page_num)</text><polygon fill="#181818" points="994,1442.1406,1004,1446.1406,994,1450.1406,998,1446.1406" style="stroke:#181818;stroke-width:1.0;"/><line style="stroke:#181818;stroke-width:1.0;" x1="749" x2="1000" y1="1446.1406" y2="1446.1406"/><text fill="#000000" font-family="sans-serif" font-size="13" lengthAdjust="spacing" textLength="233" x="756" y="1441.0747">get_k_n_short_list(page_size, offset)</text><polygon fill="#181818" points="760,1471.2734,750,1475.2734,760,1479.2734,756,1475.2734" style="stroke:#181818;stroke-width:1.0;"/><line style="stroke:#181818;stroke-width:1.0;stroke-dasharray:2.0,2.0;" x1="754" x2="1005" y1="1475.2734" y2="1475.2734"/><text fill="#000000" font-family="sans-serif" font-size="13" lengthAdjust="spacing" textLength="176" x="766" y="1470.2075">Возврат списка клиентов</text><polygon fill="#181818" points="517,1500.4063,507,1504.4063,517,1508.4063,513,1504.4063" style="stroke:#181818;stroke-width:1.0;"/><line style="stroke:#181818;stroke-width:1.0;stroke-dasharray:2.0,2.0;" x1="511" x2="748" y1="1504.4063" y2="1504.4063"/><text fill="#000000" font-family="sans-serif" font-size="13" lengthAdjust="spacing" textLength="176" x="523" y="1499.3403">Возврат списка клиентов</text><polygon fill="#181818" points="274,1529.5391,264,1533.5391,274,1537.5391,270,1533.5391" style="stroke:#181818;stroke-width:1.0;"/><line style="stroke:#181818;stroke-width:1.0;stroke-dasharray:2.0,2.0;" x1="268" x2="505" y1="1533.5391" y2="1533.5391"/><text fill="#000000" font-family="sans-serif" font-size="13" lengthAdjust="spacing" textLength="146" x="280" y="1528.4731">Обновление таблицы</text><polygon fill="#181818" points="737,1558.6719,747,1562.6719,737,1566.6719,741,1562.6719" style="stroke:#181818;stroke-width:1.0;"/><line style="stroke:#181818;stroke-width:1.0;stroke-dasharray:2.0,2.0;" x1="263" x2="743" y1="1562.6719" y2="1562.6719"/><text fill="#000000" font-family="sans-serif" font-size="13" lengthAdjust="spacing" textLength="132" x="270" y="1557.606">Таблица обновлена</text><polygon fill="#181818" points="1325.5,1587.8047,1335.5,1591.8047,1325.5,1595.8047,1329.5,1591.8047" style="stroke:#181818;stroke-width:1.0;"/><line style="stroke:#181818;stroke-width:1.0;stroke-dasharray:2.0,2.0;" x1="749" x2="1331.5" y1="1591.8047" y2="1591.8047"/><text fill="#000000" font-family="sans-serif" font-size="13" lengthAdjust="spacing" textLength="118" x="756" y="1586.7388">Клиент обновлен</text><polygon fill="#181818" points="1159,1616.9375,1149,1620.9375,1159,1624.9375,1155,1620.9375" style="stroke:#181818;stroke-width:1.0;"/><line style="stroke:#181818;stroke-width:1.0;stroke-dasharray:2.0,2.0;" x1="1153" x2="1336.5" y1="1620.9375" y2="1620.9375"/><text fill="#000000" font-family="sans-serif" font-size="13" lengthAdjust="spacing" textLength="37" x="1165" y="1615.8716">Успех</text><polygon fill="#181818" points="274,1646.0703,264,1650.0703,274,1654.0703,270,1650.0703" style="stroke:#181818;stroke-width:1.0;"/><line style="stroke:#181818;stroke-width:1.0;stroke-dasharray:2.0,2.0;" x1="268" x2="1147" y1="1650.0703" y2="1650.0703"/><text fill="#000000" font-family="sans-serif" font-size="13" lengthAdjust="spacing" textLength="104" x="280" y="1645.0044">Закрытие окна</text><rect fill="#EEEEEE" height="3" style="stroke:#EEEEEE;stroke-width:1.0;" width="1543" x="0" y="1678.6367"/><line style="stroke:#000000;stroke-width:1.0;" x1="0" x2="1543" y1="1678.6367" y2="1678.6367"/><line style="stroke:#000000;stroke-width:1.0;" x1="0" x2="1543" y1="1681.6367" y2="1681.6367"/><rect fill="#EEEEEE" height="23.1328" style="stroke:#000000;stroke-width:2.0;" width="163" x="690" y="1668.0703"/><text fill="#000000" font-family="sans-serif" font-size="13" font-weight="bold" lengthAdjust="spacing" textLength="144" x="696" y="1684.1372">Удаление клиента</text><polygon fill="#181818" points="251,1718.3359,261,1722.3359,251,1726.3359,255,1722.3359" style="stroke:#181818;stroke-width:1.0;"/><line style="stroke:#181818;stroke-width:1.0;" x1="24" x2="257" y1="1722.3359" y2="1722.3359"/><text fill="#000000" font-family="sans-serif" font-size="13" lengthAdjust="spacing" textLength="205" x="31" y="1717.27">Нажимает "Удалить клиента"</text><polygon fill="#181818" points="494,1747.4688,504,1751.4688,494,1755.4688,498,1751.4688" style="stroke:#181818;stroke-width:1.0;"/><line style="stroke:#181818;stroke-width:1.0;" x1="263" x2="500" y1="1751.4688" y2="1751.4688"/><text fill="#000000" font-family="sans-serif" font-size="13" lengthAdjust="spacing" textLength="143" x="270" y="1746.4028">delete_client(client_id)</text><polygon fill="#181818" points="737,1776.6016,747,1780.6016,737,1784.6016,741,1780.6016" style="stroke:#181818;stroke-width:1.0;"/><line style="stroke:#181818;stroke-width:1.0;" x1="506" x2="743" y1="1780.6016" y2="1780.6016"/><text fill="#000000" font-family="sans-serif" font-size="13" lengthAdjust="spacing" textLength="143" x="513" y="1775.5356">delete_client(client_id)</text><polygon fill="#181818" points="994,1805.7344,1004,1809.7344,994,1813.7344,998,1809.7344" style="stroke:#181818;stroke-width:1.0;"/><line style="stroke:#181818;stroke-width:1.0;" x1="749" x2="1000" y1="1809.7344" y2="1809.7344"/><text fill="#000000" font-family="sans-serif" font-size="13" lengthAdjust="spacing" textLength="102" x="756" y="1804.6685">delete(client_id)</text><polygon fill="#181818" points="760,1834.8672,750,1838.8672,760,1842.8672,756,1838.8672" style="stroke:#181818;stroke-width:1.0;"/><line style="stroke:#181818;stroke-width:1.0;stroke-dasharray:2.0,2.0;" x1="754" x2="1005" y1="1838.8672" y2="1838.8672"/><text fill="#000000" font-family="sans-serif" font-size="13" lengthAdjust="spacing" textLength="103" x="766" y="1833.8013">Клиент удален</text><polygon fill="#181818" points="1480,1864,1490,1868,1480,1872,1484,1868" style="stroke:#181818;stroke-width:1.0;"/><line style="stroke:#181818;stroke-width:1.0;" x1="749" x2="1486" y1="1868" y2="1868"/><text fill="#000000" font-family="sans-serif" font-size="13" lengthAdjust="spacing" textLength="127" x="756" y="1862.9341">notify_observers(...)</text><polygon fill="#181818" points="274,1893.1328,264,1897.1328,274,1901.1328,270,1897.1328" style="stroke:#181818;stroke-width:1.0;"/><line style="stroke:#181818;stroke-width:1.0;" x1="268" x2="1491" y1="1897.1328" y2="1897.1328"/><text fill="#000000" font-family="sans-serif" font-size="13" lengthAdjust="spacing" textLength="67" x="280" y="1892.0669">update(...)</text><line style="stroke:#181818;stroke-width:1.0;" x1="263" x2="305" y1="1926.2656" y2="1926.2656"/><line style="stroke:#181818;stroke-width:1.0;" x1="305" x2="305" y1="1926.2656" y2="1939.2656"/><line style="stroke:#181818;stroke-width:1.0;" x1="264" x2="305" y1="1939.2656" y2="1939.2656"/><polygon fill="#181818" points="274,1935.2656,264,1939.2656,274,1943.2656,270,1939.2656" style="stroke:#181818;stroke-width:1.0;"/><text fill="#000000" font-family="sans-serif" font-size="13" lengthAdjust="spacing" textLength="94" x="270" y="1921.1997">refresh_table()</text><polygon fill="#181818" points="494,1964.3984,504,1968.3984,494,1972.3984,498,1968.3984" style="stroke:#181818;stroke-width:1.0;"/><line style="stroke:#181818;stroke-width:1.0;" x1="263" x2="500" y1="1968.3984" y2="1968.3984"/><text fill="#000000" font-family="sans-serif" font-size="13" lengthAdjust="spacing" textLength="219" x="270" y="1963.3325">get_clients(page_size, page_num)</text><polygon fill="#181818" points="737,1993.5313,747,1997.5313,737,2001.5313,741,1997.5313" style="stroke:#181818;stroke-width:1.0;"/><line style="stroke:#181818;stroke-width:1.0;" x1="506" x2="743" y1="1997.5313" y2="1997.5313"/><text fill="#000000" font-family="sans-serif" font-size="13" lengthAdjust="spacing" textLength="219" x="513" y="1992.4653">get_clients(page_size, page_num)</text><polygon fill="#181818" points="994,2022.6641,1004,2026.6641,994,2030.6641,998,2026.6641" style="stroke:#181818;stroke-width:1.0;"/><line style="stroke:#181818;stroke-width:1.0;" x1="749" x2="1000" y1="2026.6641" y2="2026.6641"/><text fill="#000000" font-family="sans-serif" font-size="13" lengthAdjust="spacing" textLength="233" x="756" y="2021.5981">get_k_n_short_list(page_size, offset)</text><polygon fill="#181818" points="760,2051.7969,750,2055.7969,760,2059.7969,756,2055.7969" style="stroke:#181818;stroke-width:1.0;"/><line style="stroke:#181818;stroke-width:1.0;stroke-dasharray:2.0,2.0;" x1="754" x2="1005" y1="2055.7969" y2="2055.7969"/><text fill="#000000" font-family="sans-serif" font-size="13" lengthAdjust="spacing" textLength="176" x="766" y="2050.731">Возврат списка клиентов</text><polygon fill="#181818" points="517,2080.9297,507,2084.9297,517,2088.9297,513,2084.9297" style="stroke:#181818;stroke-width:1.0;"/><line style="stroke:#181818;stroke-width:1.0;stroke-dasharray:2.0,2.0;" x1="511" x2="748" y1="2084.9297" y2="2084.9297"/><text fill="#000000" font-family="sans-serif" font-size="13" lengthAdjust="spacing" textLength="176" x="523" y="2079.8638">Возврат списка клиентов</text><polygon fill="#181818" points="274,2110.0625,264,2114.0625,274,2118.0625,270,2114.0625" style="stroke:#181818;stroke-width:1.0;"/><line style="stroke:#181818;stroke-width:1.0;stroke-dasharray:2.0,2.0;" x1="268" x2="505" y1="2114.0625" y2="2114.0625"/><text fill="#000000" font-family="sans-serif" font-size="13" lengthAdjust="spacing" textLength="146" x="280" y="2108.9966">Обновление таблицы</text><!--MD5=[f82354ee530de52a9778b1e7416891d1]
@startuml
actor User
participant "MainView" as MV
participant "MainController" as MC
participant "ClientModel" as CM
participant "ClientRepDB" as DB
participant "AddUpdateClientView" as ACV
participant "AddUpdateClientController" as ACC
participant "Observable" as Obs

== Инициализация главного окна ==
User -> MV: Запуск приложения
MV -> MV: refresh_table()
MV -> MC: get_clients(page_size, page_num)
MC -> CM: get_clients(page_size, page_num)
CM -> DB: get_k_n_short_list(page_size, offset)
DB - -> CM: Возврат списка клиентов
CM - -> MC: Возврат списка клиентов
MC - -> MV: Обновление таблицы

== Добавление нового клиента ==
User -> MV: Нажимает "Добавить клиента"
MV -> ACV: Открытие AddUpdateClientView
User -> ACV: Ввод данных клиента
ACV -> ACC: add_client(...)
ACC -> CM: add_client(...)
CM -> DB: add(...)
DB - -> CM: Клиент добавлен
CM -> Obs: notify_observers(...)
Obs -> MV: update(...)
MV -> MV: refresh_table()
MV -> MC: get_clients(page_size, page_num)
MC -> CM: get_clients(page_size, page_num)
CM -> DB: get_k_n_short_list(page_size, offset)
DB - -> CM: Возврат списка клиентов
CM - -> MC: Возврат списка клиентов
MC - -> MV: Обновление таблицы
MV - -> CM: Таблица обновлена
CM - -> ACC: Клиент добавлен
ACC - -> ACV: Успех
ACV - -> MV: Закрытие окна

== Обновление данных клиента ==
User -> MV: Нажимает "Скорректировать"
MV -> ACV: Открытие AddUpdateClientView
User -> ACV: Изменение данных клиента
ACV -> ACC: update_client(...)
ACC -> CM: update_client(...)
CM -> DB: update(...)
DB - -> CM: Клиент обновлен
CM -> Obs: notify_observers(...)
Obs -> MV: update(...)
MV -> MV: refresh_table()
MV -> MC: get_clients(page_size, page_num)
MC -> CM: get_clients(page_size, page_num)
CM -> DB: get_k_n_short_list(page_size, offset)
DB - -> CM: Возврат списка клиентов
CM - -> MC: Возврат списка клиентов
MC - -> MV: Обновление таблицы
MV - -> CM: Таблица обновлена
CM - -> ACC: Клиент обновлен
ACC - -> ACV: Успех
ACV - -> MV: Закрытие окна

== Удаление клиента ==
User -> MV: Нажимает "Удалить клиента"
MV -> MC: delete_client(client_id)
MC -> CM: delete_client(client_id)
CM -> DB: delete(client_id)
DB - -> CM: Клиент удален
CM -> Obs: notify_observers(...)
Obs -> MV: update(...)
MV -> MV: refresh_table()
MV -> MC: get_clients(page_size, page_num)
MC -> CM: get_clients(page_size, page_num)
CM -> DB: get_k_n_short_list(page_size, offset)
DB - -> CM: Возврат списка клиентов
CM - -> MC: Возврат списка клиентов
MC - -> MV: Обновление таблицы
@enduml

PlantUML version 1.2022.7(Mon Aug 22 17:01:30 UTC 2022)
(GPL source distribution)
Java Runtime: OpenJDK Runtime Environment
JVM: OpenJDK 64-Bit Server VM
Default Encoding: UTF-8
Language: en
Country: null
--></g></svg>